<svg height="512pt" viewBox="-18 0 512 512" width="512pt" xmlns="http://www.w3.org/2000/svg"><path d="m233.121094 20.785156h55.171875c8.777343 0 17.285156 1.164063 25.378906 3.328125-3.839844-13.886719-16.800781-24.113281-32.210937-24.113281h-41.007813c-15.355469 0-28.277344 10.152344-32.164063 23.972656 7.929688-2.074218 16.25-3.1875 24.832032-3.1875zm0 0" fill="#e87e13"/><path d="m233.121094 50.910156h55.171875c6.523437 0 12.824219.9375 18.785156 2.660156 3.75-4.398437 6.34375-9.769531 7.316406-15.675781-8.21875-2.652343-16.988281-4.109375-26.101562-4.109375h-55.171875c-8.9375 0-17.546875 1.398438-25.628906 3.953125.945312 5.917969 3.515624 11.304688 7.246093 15.71875 5.84375-1.644531 12.007813-2.546875 18.382813-2.546875zm0 0" fill="#e87e13"/><path d="m288.292969 49.910156h-55.171875c-37.179688 0-67.425782 29.558594-67.425782 65.886719v33.742187c0-3.273437 2.671876-5.929687 5.964844-5.929687h66.96875c18.210938 0 35.09375-8.960937 45.160156-23.96875 1.105469-1.648437 2.972657-2.640625 4.96875-2.640625 1.992188 0 3.855469.992188 4.960938 2.640625 10.066406 15.007813 26.953125 23.96875 45.164062 23.96875h10.867188c3.296875 0 5.96875 2.65625 5.96875 5.929687l.003906-33.742187c0-36.328125-30.25-65.886719-67.429687-65.886719zm0 0" fill="#f7931e"/><path d="m331.121094 318.378906h-40.742188v13.863282c0 10.644531-8.664062 19.300781-19.3125 19.300781h-20.71875c-10.648437 0-19.3125-8.65625-19.3125-19.300781v-13.863282h-40.742187c-27.640625 0-50.128907 22.347656-50.128907 49.8125v111.292969h241.085938v-111.292969c0-27.464844-22.488281-49.8125-50.128906-49.8125zm0 0" fill="#ef5050"/><path d="m290.378906 332.242188c0 10.644531-8.664062 19.300781-19.3125 19.300781h-20.71875c-10.648437 0-19.3125-8.65625-19.3125-19.300781v-13.863282h-35.683594l65.355469 138.203125 65.355469-138.203125h-35.683594zm0 0" fill="#fcdb67"/><path d="m260.707031 386.859375c-11.867187 0-23.453125-1.21875-34.636719-3.523437l34.636719 73.246093 34.636719-73.246093c-11.183594 2.308593-22.765625 3.523437-34.636719 3.523437zm0 0" fill="#fff"/><path d="m282.328125 301.839844c-1.664063.109375-3.339844.1875-5.03125.1875h-33.179687c-4.808594 0-9.511719-.460938-14.082032-1.296875v31.511719c0 11.167968 9.144532 20.304687 20.316406 20.304687h20.714844c11.171875 0 20.3125-9.136719 20.3125-20.304687v-18.777344c-4.78125-1.976563-8.304687-6.363282-9.050781-11.625zm0 0" fill="#ffc7a1"/><path d="m379.542969 221.378906h-8.59375v67.097656c0 1.4375-1.214844 2.652344-2.652344 2.652344h-44.34375c1.757813 2.433594 2.808594 5.410156 2.808594 8.628906 0 2.28125-.535157 4.4375-1.464844 6.371094h43c9.730469 0 17.652344-7.917968 17.652344-17.652344v-69.722656c-1.652344 1.617188-3.914063 2.625-6.40625 2.625zm0 0" fill="#c5ccd3"/><path d="m141.871094 153.039062h8.597656v-37.242187c0-44.667969 37.078125-81.011719 82.652344-81.011719h55.171875c45.578125 0 82.65625 36.34375 82.65625 81.011719v37.242187h8.59375c2.492187 0 4.753906 1.007813 6.40625 2.625v-39.867187c0-52.941406-43.808594-96.011719-97.65625-96.011719h-55.171875c-53.847656 0-97.652344 43.070313-97.652344 96.011719v39.867187c1.648438-1.617187 3.910156-2.625 6.402344-2.625zm0 0" fill="#c5ccd3"/><path d="m379.542969 152.039062h-24.824219v70.339844h24.824219c5.585937 0 10.15625-4.570312 10.15625-10.152344v-50.035156c0-5.582031-4.570313-10.152344-10.15625-10.152344zm0 0" fill="#9ea7af"/><path d="m166.695312 152.039062h-24.824218c-5.585938 0-10.152344 4.570313-10.152344 10.152344v50.035156c0 5.582032 4.566406 10.148438 10.152344 10.148438h24.824218zm0 0" fill="#9ea7af"/><path d="m349.75 141.65625h-10.867188c-18.210937 0-35.097656-8.960938-45.164062-23.96875-1.105469-1.648438-2.96875-2.640625-4.960938-2.640625-1.996093 0-3.863281.992187-4.96875 2.640625-10.066406 15.007812-26.949218 23.96875-45.160156 23.96875h-66.96875c-3.292968 0-5.964844 2.65625-5.964844 5.929688v77.570312c0 42.9375 35.175782 77.871094 78.421876 77.871094h33.179687c1.746094 0 3.476563-.078125 5.195313-.191406-.214844-.992188-.328126-2.019532-.328126-3.078126 0-8.179687 6.6875-14.835937 14.910157-14.835937h14.777343c3.96875 0 7.574219 1.5625 10.25 4.089844 20.300782-14.085938 33.617188-37.449219 33.617188-63.851563v-77.570312c0-3.277344-2.671875-5.933594-5.96875-5.933594zm0 0" fill="#ffd5b3"/><path d="m213.953125 195.59375c-4.140625 0-7.5-3.359375-7.5-7.5v-17.972656c0-4.144532 3.359375-7.5 7.5-7.5 4.144531 0 7.5 3.355468 7.5 7.5v17.972656c0 4.140625-3.355469 7.5-7.5 7.5zm0 0" fill="#775436"/><path d="m307.460938 195.59375c-4.144532 0-7.5-3.359375-7.5-7.5v-17.972656c0-4.144532 3.355468-7.5 7.5-7.5 4.144531 0 7.5 3.355468 7.5 7.5v17.972656c0 4.140625-3.359376 7.5-7.5 7.5zm0 0" fill="#775436"/><path d="m274.28125 215.558594h-13.019531c-6.9375 0-12.578125-5.644532-12.578125-12.578125v-18.625c0-4.140625 3.355468-7.5 7.5-7.5 4.140625 0 7.5 3.359375 7.5 7.5v16.203125h10.597656c4.144531 0 7.5 3.355468 7.5 7.5 0 4.140625-3.355469 7.5-7.5 7.5zm0 0" fill="#c6a07d"/><path d="m260.703125 276.027344c-21.683594 0-39.328125-15.894532-39.328125-35.429688 0-3.148437 2.566406-5.699218 5.730469-5.699218h67.199219c3.167968 0 5.734374 2.550781 5.734374 5.699218 0 19.535156-17.644531 35.429688-39.335937 35.429688zm0 0" fill="#fb8276"/><path d="m327.761719 299.757812c0 8.746094-7.125 15.835938-15.910157 15.835938h-14.777343c-8.789063 0-15.910157-7.089844-15.910157-15.835938 0-8.746093 7.121094-15.835937 15.910157-15.835937h14.777343c8.785157 0 15.910157 7.089844 15.910157 15.835937zm0 0" fill="#9ea7af"/><path d="m171.421875 465.589844h16.550781v-7.558594c0-2.9375 1.269532-5.585938 3.285156-7.441406h-12.335937v-66.023438c0-4.144531-3.359375-7.5-7.5-7.5-4.144531 0-7.5 3.355469-7.5 7.5v73.523438c0 4.140625 3.355469 7.5 7.5 7.5zm0 0" fill="#c0272d"/><path d="m234.730469 479.484375v-21.453125c0-5.582031-4.570313-10.152344-10.15625-10.152344h-26.445313c-5.585937 0-10.15625 4.570313-10.15625 10.152344v21.453125zm0 0" fill="#ffc7a1"/><path d="m333.441406 458.03125v7.558594h16.554688c4.140625 0 7.5-3.355469 7.5-7.5v-73.523438c0-4.144531-3.359375-7.5-7.5-7.5-4.144532 0-7.5 3.355469-7.5 7.5v66.023438h-12.335938c2.011719 1.855468 3.28125 4.503906 3.28125 7.441406zm0 0" fill="#c0272d"/><path d="m333.441406 479.484375v-21.453125c0-5.582031-4.570312-10.152344-10.15625-10.152344h-26.445312c-5.585938 0-10.15625 4.570313-10.15625 10.152344v21.453125zm0 0" fill="#ffc7a1"/><path d="m407.621094 498v-14.441406c0-2.789063-2.285156-5.074219-5.078125-5.074219h-283.671875c-2.792969 0-5.074219 2.285156-5.074219 5.074219v14.441406zm0 0" fill="#c6a07d"/><path d="m468.40625 512h-415.394531c-4.144531 0-7.5-3.355469-7.5-7.5s3.355469-7.5 7.5-7.5h415.394531c4.144531 0 7.5 3.355469 7.5 7.5s-3.355469 7.5-7.5 7.5zm0 0" fill="#775436"/><path d="m0 51.261719c0-2.789063 2.285156-5.074219 5.078125-5.074219h110.402344c2.792969 0 5.074219 2.285156 5.074219 5.074219v82.832031c0 2.792969-2.28125 5.074219-5.074219 5.074219h-12.703125c-2.792969 0-5.078125 2.285156-5.078125 5.074219v16.214843c0 2.789063-1.785157 3.652344-3.972657 1.914063l-25.175781-20.039063c-2.1875-1.742187-6.257812-3.164062-9.050781-3.164062h-54.421875c-2.792969 0-5.078125-2.28125-5.078125-5.074219zm0 0" fill="#ffc502"/><g fill="#775436"><path d="m93.058594 78.675781h-65.5625c-4.140625 0-7.5-3.359375-7.5-7.5 0-4.144531 3.359375-7.5 7.5-7.5h65.5625c4.144531 0 7.5 3.355469 7.5 7.5 0 4.140625-3.359375 7.5-7.5 7.5zm0 0"/><path d="m93.058594 100.175781h-65.5625c-4.140625 0-7.5-3.355469-7.5-7.5 0-4.140625 3.359375-7.5 7.5-7.5h65.5625c4.144531 0 7.5 3.359375 7.5 7.5 0 4.144531-3.359375 7.5-7.5 7.5zm0 0"/><path d="m56.792969 121.679688h-29.296875c-4.140625 0-7.5-3.355469-7.5-7.5 0-4.144532 3.359375-7.5 7.5-7.5h29.296875c4.144531 0 7.5 3.355468 7.5 7.5 0 4.144531-3.359375 7.5-7.5 7.5zm0 0"/></g></svg>